<svg width="2402" height="434" viewBox="0 0 2402 434" fill="none" xmlns="http://www.w3.org/2000/svg">
<path d="M581.963 98.8182H638.852L698.938 245.409H701.494L761.58 98.8182H818.469V317H773.724V174.99H771.913L715.45 315.935H684.982L628.518 174.457H626.707V317H581.963V98.8182ZM960.559 247.327V153.364H1005.94V317H962.37V287.277H960.665C956.972 296.865 950.828 304.571 942.235 310.395C933.712 316.219 923.307 319.131 911.02 319.131C900.083 319.131 890.459 316.645 882.15 311.673C873.84 306.702 867.341 299.635 862.654 290.473C858.037 281.311 855.694 270.338 855.623 257.554V153.364H901.006V249.457C901.077 259.116 903.669 266.751 908.783 272.362C913.897 277.973 920.75 280.778 929.344 280.778C934.813 280.778 939.926 279.536 944.685 277.05C949.444 274.493 953.279 270.729 956.191 265.757C959.174 260.786 960.63 254.642 960.559 247.327ZM1087.63 98.8182V317H1042.24V98.8182H1087.63ZM1211.02 153.364V187.455H1112.48V153.364H1211.02ZM1134.85 114.159H1180.23V266.716C1180.23 270.906 1180.87 274.173 1182.15 276.517C1183.43 278.79 1185.2 280.388 1187.48 281.311C1189.82 282.234 1192.52 282.696 1195.57 282.696C1197.7 282.696 1199.83 282.518 1201.96 282.163C1204.1 281.737 1205.73 281.418 1206.87 281.205L1214 314.976C1211.73 315.686 1208.53 316.503 1204.42 317.426C1200.3 318.42 1195.29 319.024 1189.39 319.237C1178.46 319.663 1168.87 318.207 1160.63 314.869C1152.46 311.531 1146.11 306.347 1141.56 299.315C1137.01 292.284 1134.78 283.406 1134.85 272.682V114.159ZM1240.58 317V153.364H1285.97V317H1240.58ZM1263.38 132.27C1256.63 132.27 1250.85 130.033 1246.02 125.558C1241.26 121.013 1238.88 115.58 1238.88 109.259C1238.88 103.009 1241.26 97.6463 1246.02 93.1719C1250.85 88.6264 1256.63 86.3537 1263.38 86.3537C1270.13 86.3537 1275.88 88.6264 1280.64 93.1719C1285.47 97.6463 1287.88 103.009 1287.88 109.259C1287.88 115.58 1285.47 121.013 1280.64 125.558C1275.88 130.033 1270.13 132.27 1263.38 132.27ZM1510.97 161.567C1510.11 152.973 1506.46 146.297 1499.99 141.538C1493.53 136.78 1484.76 134.401 1473.68 134.401C1466.15 134.401 1459.8 135.466 1454.61 137.597C1449.43 139.656 1445.45 142.533 1442.68 146.226C1439.98 149.919 1438.63 154.109 1438.63 158.797C1438.49 162.703 1439.31 166.112 1441.08 169.024C1442.93 171.936 1445.45 174.457 1448.64 176.588C1451.84 178.648 1455.53 180.459 1459.72 182.021C1463.91 183.513 1468.39 184.791 1473.15 185.857L1492.75 190.544C1502.27 192.675 1511 195.516 1518.96 199.067C1526.91 202.618 1533.8 206.986 1539.62 212.17C1545.45 217.355 1549.96 223.463 1553.15 230.494C1556.42 237.526 1558.09 245.587 1558.16 254.678C1558.09 268.03 1554.68 279.607 1547.93 289.408C1541.26 299.138 1531.6 306.702 1518.96 312.099C1506.39 317.426 1491.22 320.089 1473.47 320.089C1455.85 320.089 1440.51 317.391 1427.44 311.993C1414.45 306.595 1404.29 298.605 1396.98 288.023C1389.73 277.369 1385.93 264.195 1385.58 248.499H1430.21C1430.71 255.814 1432.81 261.922 1436.5 266.822C1440.26 271.652 1445.27 275.31 1451.52 277.795C1457.84 280.21 1464.98 281.418 1472.93 281.418C1480.75 281.418 1487.53 280.281 1493.28 278.009C1499.11 275.736 1503.62 272.575 1506.81 268.527C1510.01 264.479 1511.61 259.827 1511.61 254.571C1511.61 249.67 1510.15 245.551 1507.24 242.213C1504.4 238.875 1500.21 236.034 1494.67 233.69C1489.2 231.347 1482.49 229.216 1474.53 227.298L1450.78 221.332C1432.38 216.858 1417.86 209.862 1407.2 200.345C1396.55 190.828 1391.26 178.009 1391.33 161.886C1391.26 148.676 1394.77 137.135 1401.88 127.263C1409.05 117.391 1418.89 109.685 1431.39 104.145C1443.89 98.6051 1458.09 95.8352 1474 95.8352C1490.19 95.8352 1504.33 98.6051 1516.4 104.145C1528.55 109.685 1537.99 117.391 1544.74 127.263C1551.49 137.135 1554.97 148.57 1555.18 161.567H1510.97ZM1662.91 320.196C1646.08 320.196 1631.59 316.787 1619.45 309.969C1607.37 303.08 1598.07 293.349 1591.53 280.778C1585 268.136 1581.73 253.186 1581.73 235.928C1581.73 219.095 1585 204.322 1591.53 191.609C1598.07 178.896 1607.26 168.989 1619.13 161.886C1631.06 154.784 1645.05 151.233 1661.1 151.233C1671.9 151.233 1681.95 152.973 1691.25 156.453C1700.62 159.862 1708.79 165.011 1715.75 171.901C1722.78 178.79 1728.25 187.455 1732.16 197.895C1736.06 208.264 1738.02 220.409 1738.02 234.33V246.794H1599.84V218.669H1695.3C1695.3 212.135 1693.88 206.347 1691.04 201.304C1688.2 196.261 1684.25 192.32 1679.21 189.479C1674.24 186.567 1668.45 185.111 1661.85 185.111C1654.96 185.111 1648.85 186.709 1643.52 189.905C1638.27 193.03 1634.15 197.256 1631.16 202.582C1628.18 207.838 1626.65 213.697 1626.58 220.161V246.901C1626.58 254.997 1628.07 261.993 1631.06 267.888C1634.11 273.783 1638.41 278.328 1643.95 281.524C1649.49 284.72 1656.06 286.318 1663.66 286.318C1668.7 286.318 1673.32 285.608 1677.51 284.188C1681.7 282.767 1685.28 280.636 1688.27 277.795C1691.25 274.955 1693.52 271.474 1695.08 267.355L1737.06 270.125C1734.93 280.21 1730.56 289.017 1723.96 296.545C1717.42 304.003 1708.97 309.827 1698.6 314.017C1688.3 318.136 1676.41 320.196 1662.91 320.196ZM1814.3 320.089C1803.86 320.089 1794.55 318.278 1786.38 314.656C1778.22 310.963 1771.75 305.53 1767 298.357C1762.31 291.112 1759.96 282.092 1759.96 271.297C1759.96 262.206 1761.63 254.571 1764.97 248.392C1768.31 242.213 1772.85 237.241 1778.61 233.477C1784.36 229.713 1790.89 226.872 1798.21 224.955C1805.6 223.037 1813.34 221.688 1821.43 220.906C1830.95 219.912 1838.62 218.989 1844.45 218.136C1850.27 217.213 1854.5 215.864 1857.12 214.088C1859.75 212.312 1861.06 209.685 1861.06 206.205V205.565C1861.06 198.818 1858.93 193.598 1854.67 189.905C1850.48 186.212 1844.52 184.365 1836.77 184.365C1828.61 184.365 1822.11 186.176 1817.28 189.798C1812.45 193.349 1809.25 197.824 1807.69 203.222L1765.72 199.812C1767.85 189.869 1772.04 181.276 1778.29 174.031C1784.54 166.716 1792.6 161.105 1802.47 157.199C1812.41 153.222 1823.92 151.233 1836.99 151.233C1846.08 151.233 1854.78 152.298 1863.09 154.429C1871.47 156.56 1878.89 159.862 1885.35 164.337C1891.89 168.811 1897.04 174.564 1900.8 181.595C1904.57 188.555 1906.45 196.901 1906.45 206.631V317H1863.41V294.308H1862.13C1859.5 299.422 1855.99 303.932 1851.58 307.838C1847.18 311.673 1841.89 314.692 1835.71 316.893C1829.53 319.024 1822.39 320.089 1814.3 320.089ZM1827.29 288.768C1833.97 288.768 1839.86 287.455 1844.98 284.827C1850.09 282.128 1854.1 278.506 1857.02 273.96C1859.93 269.415 1861.38 264.266 1861.38 258.513V241.148C1859.96 242.071 1858.01 242.923 1855.52 243.705C1853.11 244.415 1850.38 245.089 1847.32 245.729C1844.27 246.297 1841.21 246.83 1838.16 247.327C1835.11 247.753 1832.34 248.143 1829.85 248.499C1824.52 249.28 1819.87 250.523 1815.89 252.227C1811.92 253.932 1808.83 256.24 1806.63 259.152C1804.42 261.993 1803.32 265.544 1803.32 269.805C1803.32 275.984 1805.56 280.707 1810.03 283.974C1814.58 287.17 1820.33 288.768 1827.29 288.768ZM1941.66 317V153.364H1985.66V181.915H1987.36C1990.34 171.759 1995.35 164.088 2002.38 158.903C2009.41 153.648 2017.51 151.02 2026.67 151.02C2028.94 151.02 2031.39 151.162 2034.02 151.446C2036.65 151.73 2038.96 152.121 2040.95 152.618V192.888C2038.82 192.249 2035.87 191.68 2032.11 191.183C2028.34 190.686 2024.9 190.438 2021.77 190.438C2015.1 190.438 2009.13 191.893 2003.87 194.805C1998.69 197.646 1994.57 201.624 1991.52 206.737C1988.53 211.851 1987.04 217.746 1987.04 224.422V317H1941.66ZM2130.73 320.196C2113.97 320.196 2099.55 316.645 2087.48 309.543C2075.47 302.369 2066.24 292.426 2059.78 279.713C2053.39 267 2050.19 252.369 2050.19 235.821C2050.19 219.06 2053.42 204.358 2059.88 191.716C2066.42 179.003 2075.69 169.095 2087.69 161.993C2099.69 154.82 2113.97 151.233 2130.52 151.233C2144.79 151.233 2157.29 153.825 2168.02 159.01C2178.74 164.195 2187.23 171.474 2193.48 180.849C2199.73 190.224 2203.17 201.233 2203.81 213.875H2160.98C2159.78 205.707 2156.58 199.138 2151.4 194.166C2146.28 189.124 2139.57 186.602 2131.26 186.602C2124.23 186.602 2118.09 188.52 2112.83 192.355C2107.65 196.119 2103.6 201.624 2100.69 208.868C2097.77 216.112 2096.32 224.884 2096.32 235.182C2096.32 245.622 2097.74 254.5 2100.58 261.815C2103.49 269.131 2107.58 274.706 2112.83 278.541C2118.09 282.376 2124.23 284.294 2131.26 284.294C2136.45 284.294 2141.1 283.229 2145.22 281.098C2149.41 278.967 2152.85 275.878 2155.55 271.83C2158.32 267.71 2160.13 262.774 2160.98 257.021H2203.81C2203.1 269.521 2199.69 280.53 2193.58 290.047C2187.55 299.493 2179.2 306.879 2168.55 312.206C2157.9 317.533 2145.29 320.196 2130.73 320.196ZM2278.25 222.398V317H2232.87V98.8182H2276.97V182.234H2278.89C2282.58 172.575 2288.55 165.011 2296.79 159.543C2305.03 154.003 2315.36 151.233 2327.79 151.233C2339.15 151.233 2349.06 153.719 2357.51 158.69C2366.04 163.591 2372.64 170.658 2377.33 179.891C2382.09 189.053 2384.43 200.026 2384.36 212.81V317H2338.98V220.906C2339.05 210.821 2336.49 202.973 2331.31 197.362C2326.19 191.751 2319.02 188.946 2309.79 188.946C2303.61 188.946 2298.14 190.26 2293.38 192.888C2288.69 195.516 2285 199.351 2282.3 204.393C2279.67 209.365 2278.32 215.366 2278.25 222.398Z" fill="#EAEAEA"/>
<circle cx="198.5" cy="198.5" r="178.5" stroke="#3A81F6" stroke-width="40"/>
<rect x="338.904" y="303" width="132.718" height="52" rx="26" transform="rotate(45.2099 338.904 303)" fill="#3A81F6"/>
<circle cx="102" cy="203" r="30" fill="#F23121"/>
<circle cx="201" cy="203" r="30" fill="#F5B703"/>
<circle cx="301" cy="203" r="30" fill="#3A81F6"/>
<path d="M21 209C23 294.5 106.5 401 243 372" stroke="#1A1A1A" stroke-width="42" stroke-linecap="round" stroke-linejoin="bevel"/>
<path d="M40 202C40 213.046 31.0457 222 20 222C8.9543 222 0 213.046 0 202C0 190.954 8.9543 182 20 182C31.0457 182 40 190.954 40 202Z" fill="#3A81F6"/>
<path d="M271 369C271 380.046 262.046 389 251 389C239.954 389 231 380.046 231 369C231 357.954 239.954 349 251 349C262.046 349 271 357.954 271 369Z" fill="#3A81F6"/>
<path d="M29 256.5C67.5 348.5 135.5 373.5 191.5 377" stroke="#F5B703" stroke-width="43" stroke-linecap="round" stroke-linejoin="bevel"/>
</svg>
