<svg width="2379" height="434" viewBox="0 0 2379 434" fill="none" xmlns="http://www.w3.org/2000/svg">
<circle cx="198.5" cy="198.5" r="178.5" stroke="#3A81F6" stroke-width="40"/>
<rect x="338.904" y="303" width="132.718" height="52" rx="26" transform="rotate(45.2099 338.904 303)" fill="#3A81F6"/>
<circle cx="102" cy="203" r="30" fill="#F23121"/>
<circle cx="201" cy="203" r="30" fill="#F5B703"/>
<circle cx="301" cy="203" r="30" fill="#3A81F6"/>
<path d="M21 209C23 294.5 106.5 401 243 372" stroke="white" stroke-width="42" stroke-linecap="round" stroke-linejoin="bevel"/>
<path d="M40 202C40 213.046 31.0457 222 20 222C8.9543 222 0 213.046 0 202C0 190.954 8.9543 182 20 182C31.0457 182 40 190.954 40 202Z" fill="#3A81F6"/>
<path d="M271 369C271 380.046 262.046 389 251 389C239.954 389 231 380.046 231 369C231 357.954 239.954 349 251 349C262.046 349 271 357.954 271 369Z" fill="#3A81F6"/>
<path d="M29 256.5C67.5 348.5 135.5 373.5 191.5 377" stroke="#F5B703" stroke-width="43" stroke-linecap="round" stroke-linejoin="bevel"/>
<path d="M586.52 99.8182H634.886L699.659 257.915H702.216L766.989 99.8182H815.355V318H777.429V168.107H775.405L715.107 317.361H686.768L626.47 167.787H624.446V318H586.52V99.8182ZM960.987 249.179V154.364H999.553V318H962.159V288.916H960.455C956.761 298.078 950.689 305.571 942.237 311.395C933.857 317.219 923.523 320.131 911.236 320.131C900.511 320.131 891.03 317.751 882.791 312.993C874.624 308.163 868.232 301.168 863.615 292.006C858.999 282.773 856.69 271.622 856.69 258.554V154.364H895.256V252.588C895.256 262.957 898.097 271.196 903.778 277.304C909.46 283.412 916.918 286.466 926.151 286.466C931.832 286.466 937.337 285.081 942.663 282.311C947.99 279.541 952.358 275.422 955.767 269.953C959.247 264.413 960.987 257.489 960.987 249.179ZM1077.78 99.8182V318H1039.21V99.8182H1077.78ZM1199.14 154.364V184.193H1105.07V154.364H1199.14ZM1128.3 115.159H1166.86V268.781C1166.86 273.966 1167.65 277.943 1169.21 280.713C1170.84 283.412 1172.97 285.259 1175.6 286.253C1178.23 287.247 1181.14 287.744 1184.34 287.744C1186.75 287.744 1188.95 287.567 1190.94 287.212C1193 286.857 1194.56 286.537 1195.63 286.253L1202.13 316.402C1200.07 317.112 1197.12 317.893 1193.28 318.746C1189.52 319.598 1184.9 320.095 1179.44 320.237C1169.78 320.521 1161.08 319.065 1153.33 315.869C1145.59 312.602 1139.45 307.56 1134.9 300.741C1130.43 293.923 1128.23 285.401 1128.3 275.173V115.159ZM1231.4 318V154.364H1269.96V318H1231.4ZM1250.79 131.139C1244.68 131.139 1239.42 129.115 1235.02 125.067C1230.62 120.947 1228.41 116.011 1228.41 110.259C1228.41 104.435 1230.62 99.4986 1235.02 95.4503C1239.42 91.331 1244.68 89.2713 1250.79 89.2713C1256.97 89.2713 1262.22 91.331 1266.55 95.4503C1270.96 99.4986 1273.16 104.435 1273.16 110.259C1273.16 116.011 1270.96 120.947 1266.55 125.067C1262.22 129.115 1256.97 131.139 1250.79 131.139ZM1504.31 159.797C1503.32 150.493 1499.13 143.249 1491.74 138.064C1484.42 132.879 1474.91 130.287 1463.19 130.287C1454.95 130.287 1447.88 131.53 1441.99 134.016C1436.09 136.501 1431.58 139.875 1428.46 144.136C1425.33 148.398 1423.74 153.263 1423.66 158.732C1423.66 163.277 1424.69 167.219 1426.75 170.557C1428.88 173.895 1431.76 176.736 1435.38 179.08C1439.01 181.352 1443.02 183.27 1447.42 184.832C1451.83 186.395 1456.26 187.709 1460.74 188.774L1481.19 193.888C1489.43 195.805 1497.35 198.398 1504.95 201.665C1512.62 204.932 1519.47 209.051 1525.51 214.023C1531.62 218.994 1536.45 224.996 1540 232.027C1543.55 239.058 1545.33 247.297 1545.33 256.743C1545.33 269.527 1542.06 280.784 1535.53 290.514C1528.99 300.173 1519.55 307.737 1507.19 313.206C1494.9 318.604 1480.02 321.303 1462.55 321.303C1445.58 321.303 1430.84 318.675 1418.34 313.419C1405.91 308.163 1396.18 300.493 1389.15 290.408C1382.19 280.322 1378.42 268.036 1377.86 253.547H1416.74C1417.31 261.146 1419.65 267.467 1423.77 272.51C1427.89 277.553 1433.25 281.317 1439.86 283.803C1446.53 286.288 1453.99 287.531 1462.23 287.531C1470.82 287.531 1478.35 286.253 1484.82 283.696C1491.35 281.068 1496.46 277.446 1500.16 272.83C1503.85 268.142 1505.73 262.673 1505.8 256.423C1505.73 250.741 1504.06 246.054 1500.8 242.361C1497.53 238.597 1492.95 235.472 1487.05 232.986C1481.23 230.429 1474.41 228.156 1466.6 226.168L1441.78 219.776C1423.81 215.159 1409.6 208.163 1399.16 198.788C1388.79 189.342 1383.61 176.807 1383.61 161.182C1383.61 148.327 1387.09 137.07 1394.05 127.411C1401.08 117.751 1410.63 110.259 1422.71 104.932C1434.78 99.5341 1448.45 96.8352 1463.72 96.8352C1479.2 96.8352 1492.77 99.5341 1504.42 104.932C1516.14 110.259 1525.33 117.68 1532.01 127.197C1538.69 136.643 1542.13 147.51 1542.34 159.797H1504.31ZM1651.3 321.196C1634.9 321.196 1620.73 317.787 1608.79 310.969C1596.93 304.08 1587.81 294.349 1581.42 281.778C1575.02 269.136 1571.83 254.257 1571.83 237.141C1571.83 220.308 1575.02 205.536 1581.42 192.822C1587.88 180.038 1596.9 170.095 1608.47 162.993C1620.05 155.82 1633.65 152.233 1649.28 152.233C1659.36 152.233 1668.88 153.866 1677.83 157.134C1686.85 160.33 1694.8 165.301 1701.69 172.048C1708.65 178.795 1714.12 187.389 1718.1 197.83C1722.08 208.199 1724.06 220.557 1724.06 234.903V246.729H1589.94V220.734H1687.1C1687.03 213.348 1685.43 206.778 1682.3 201.026C1679.18 195.202 1674.81 190.621 1669.2 187.283C1663.66 183.945 1657.2 182.276 1649.81 182.276C1641.93 182.276 1635 184.193 1629.04 188.028C1623.07 191.793 1618.42 196.764 1615.08 202.943C1611.81 209.051 1610.14 215.763 1610.07 223.078V245.77C1610.07 255.287 1611.81 263.455 1615.29 270.273C1618.77 277.02 1623.64 282.205 1629.89 285.827C1636.14 289.378 1643.45 291.153 1651.83 291.153C1657.44 291.153 1662.52 290.372 1667.07 288.81C1671.61 287.176 1675.56 284.797 1678.89 281.672C1682.23 278.547 1684.75 274.676 1686.46 270.06L1722.47 274.108C1720.19 283.625 1715.86 291.935 1709.47 299.037C1703.15 306.068 1695.05 311.537 1685.18 315.443C1675.31 319.278 1664.01 321.196 1651.3 321.196ZM1803.78 321.303C1793.41 321.303 1784.07 319.456 1775.76 315.763C1767.52 311.999 1760.99 306.459 1756.16 299.143C1751.4 291.828 1749.02 282.808 1749.02 272.084C1749.02 262.851 1750.72 255.216 1754.13 249.179C1757.54 243.142 1762.19 238.312 1768.09 234.69C1773.98 231.068 1780.63 228.334 1788.01 226.487C1795.47 224.57 1803.17 223.185 1811.13 222.332C1820.72 221.338 1828.49 220.45 1834.46 219.669C1840.43 218.817 1844.76 217.538 1847.46 215.834C1850.23 214.058 1851.61 211.324 1851.61 207.631V206.991C1851.61 198.966 1849.23 192.751 1844.47 188.348C1839.72 183.945 1832.86 181.743 1823.91 181.743C1814.47 181.743 1806.97 183.803 1801.43 187.922C1795.97 192.041 1792.27 196.906 1790.36 202.517L1754.35 197.403C1757.19 187.46 1761.88 179.151 1768.41 172.474C1774.94 165.727 1782.93 160.685 1792.38 157.347C1801.83 153.938 1812.27 152.233 1823.7 152.233C1831.58 152.233 1839.43 153.156 1847.24 155.003C1855.06 156.849 1862.19 159.903 1868.66 164.165C1875.12 168.355 1880.31 174.072 1884.21 181.317C1888.19 188.561 1890.18 197.616 1890.18 208.483V318H1853.1V295.521H1851.83C1849.48 300.067 1846.18 304.328 1841.92 308.305C1837.73 312.212 1832.44 315.372 1826.04 317.787C1819.72 320.131 1812.3 321.303 1803.78 321.303ZM1813.79 292.964C1821.53 292.964 1828.25 291.437 1833.93 288.384C1839.61 285.259 1843.98 281.139 1847.03 276.026C1850.16 270.912 1851.72 265.337 1851.72 259.3V240.017C1850.51 241.011 1848.45 241.935 1845.54 242.787C1842.7 243.639 1839.5 244.385 1835.95 245.024C1832.4 245.663 1828.88 246.232 1825.4 246.729C1821.92 247.226 1818.91 247.652 1816.35 248.007C1810.6 248.788 1805.45 250.067 1800.9 251.842C1796.36 253.618 1792.77 256.104 1790.14 259.3C1787.51 262.425 1786.2 266.473 1786.2 271.445C1786.2 278.547 1788.79 283.909 1793.98 287.531C1799.16 291.153 1805.77 292.964 1813.79 292.964ZM1928.96 318V154.364H1966.35V181.636H1968.05C1971.04 172.19 1976.15 164.911 1983.39 159.797C1990.71 154.612 1999.06 152.02 2008.43 152.02C2010.56 152.02 2012.94 152.126 2015.57 152.339C2018.27 152.482 2020.5 152.73 2022.28 153.085V188.561C2020.65 187.993 2018.05 187.496 2014.5 187.07C2011.02 186.572 2007.65 186.324 2004.38 186.324C1997.35 186.324 1991.03 187.851 1985.42 190.905C1979.88 193.888 1975.51 198.043 1972.32 203.369C1969.12 208.696 1967.52 214.839 1967.52 221.8V318H1928.96ZM2112.54 321.196C2096.21 321.196 2082.18 317.609 2070.46 310.436C2058.81 303.263 2049.83 293.355 2043.51 280.713C2037.26 268 2034.13 253.369 2034.13 236.821C2034.13 220.202 2037.33 205.536 2043.72 192.822C2050.11 180.038 2059.13 170.095 2070.78 162.993C2082.5 155.82 2096.35 152.233 2112.33 152.233C2125.61 152.233 2137.36 154.683 2147.59 159.584C2157.89 164.413 2166.09 171.267 2172.2 180.145C2178.31 188.952 2181.79 199.25 2182.64 211.04H2145.78C2144.29 203.156 2140.74 196.587 2135.13 191.331C2129.59 186.004 2122.16 183.341 2112.86 183.341C2104.98 183.341 2098.05 185.472 2092.09 189.733C2086.12 193.923 2081.47 199.96 2078.13 207.844C2074.86 215.727 2073.23 225.173 2073.23 236.182C2073.23 247.332 2074.86 256.92 2078.13 264.946C2081.4 272.901 2085.98 279.044 2091.87 283.376C2097.84 287.638 2104.83 289.768 2112.86 289.768C2118.54 289.768 2123.62 288.703 2128.09 286.572C2132.64 284.371 2136.44 281.21 2139.49 277.091C2142.55 272.972 2144.64 267.964 2145.78 262.07H2182.64C2181.72 273.646 2178.31 283.909 2172.41 292.858C2166.52 301.736 2158.49 308.696 2148.34 313.739C2138.18 318.71 2126.25 321.196 2112.54 321.196ZM2252.87 222.119V318H2214.31V99.8182H2252.02V182.169H2253.94C2257.77 172.936 2263.7 165.656 2271.73 160.33C2279.83 154.932 2290.12 152.233 2302.62 152.233C2313.99 152.233 2323.9 154.612 2332.35 159.371C2340.8 164.129 2347.33 171.089 2351.95 180.251C2356.64 189.413 2358.98 200.599 2358.98 213.81V318H2320.42V219.776C2320.42 208.767 2317.57 200.209 2311.89 194.101C2306.28 187.922 2298.4 184.832 2288.24 184.832C2281.42 184.832 2275.32 186.324 2269.92 189.307C2264.59 192.219 2260.4 196.445 2257.35 201.984C2254.36 207.524 2252.87 214.236 2252.87 222.119Z" fill="black"/>
</svg>
