<svg width="530" height="560" viewBox="0 0 530 560" fill="none" xmlns="http://www.w3.org/2000/svg">
<g filter="url(#filter0_d_5_93)">
<path d="M30 270C30 131.929 141.929 20 280 20H530V520H280C141.929 520 30 408.071 30 270V270Z" fill="#F4F4F4"/>
</g>
<circle cx="279.5" cy="265.5" r="178.5" stroke="#3A81F6" stroke-width="40"/>
<rect x="419.904" y="370" width="132.718" height="52" rx="26" transform="rotate(45.2099 419.904 370)" fill="#3A81F6"/>
<circle cx="183" cy="270" r="30" fill="#F23121"/>
<circle cx="282" cy="270" r="30" fill="#F5B703"/>
<circle cx="382" cy="270" r="30" fill="#3A81F6"/>
<path d="M102 276C104 361.5 187.5 468 324 439" stroke="#F4F4F4" stroke-width="42" stroke-linecap="round" stroke-linejoin="bevel"/>
<path d="M121 269C121 280.046 112.046 289 101 289C89.9543 289 81 280.046 81 269C81 257.954 89.9543 249 101 249C112.046 249 121 257.954 121 269Z" fill="#3A81F6"/>
<path d="M352 436C352 447.046 343.046 456 332 456C320.954 456 312 447.046 312 436C312 424.954 320.954 416 332 416C343.046 416 352 424.954 352 436Z" fill="#3A81F6"/>
<path d="M110 323.5C148.5 415.5 216.5 440.5 272.5 444" stroke="#F5B703" stroke-width="43" stroke-linecap="round" stroke-linejoin="bevel"/>
<defs>
<filter id="filter0_d_5_93" x="0" y="0" width="560" height="560" filterUnits="userSpaceOnUse" color-interpolation-filters="sRGB">
<feFlood flood-opacity="0" result="BackgroundImageFix"/>
<feColorMatrix in="SourceAlpha" type="matrix" values="0 0 0 0 0 0 0 0 0 0 0 0 0 0 0 0 0 0 127 0" result="hardAlpha"/>
<feOffset dy="10"/>
<feGaussianBlur stdDeviation="15"/>
<feComposite in2="hardAlpha" operator="out"/>
<feColorMatrix type="matrix" values="0 0 0 0 0 0 0 0 0 0 0 0 0 0 0 0 0 0 0.25 0"/>
<feBlend mode="normal" in2="BackgroundImageFix" result="effect1_dropShadow_5_93"/>
<feBlend mode="normal" in="SourceGraphic" in2="effect1_dropShadow_5_93" result="shape"/>
</filter>
</defs>
</svg>
