
<svg xmlns="http://www.w3.org/2000/svg" width="32" height="32" viewBox="0 0 175 32" fill="none">









<g clip-path="url(#clip0_3_74)">
<path d="M1.25227 10C2.5339 9.53556 4.00242 9.55211 5.25088 10.0403L6.0004 10.3334C7.10545 10.7655 7.89282 11.5082 8.43735 12.3693C8.64264 11.9982 8.8801 11.6433 9.14821 11.3089C10.2034 9.99264 11.6715 9.07056 13.3154 8.69164C14.9593 8.31272 16.6829 8.49908 18.2078 9.22061C18.5908 9.40185 18.9557 9.61419 19.2992 9.85454C20.9963 11.0417 23.2234 11.9222 25.0789 11.0021C26.9343 10.082 27.7226 7.78865 26.372 6.21852C25.0114 4.63667 23.3265 3.34539 21.4156 2.44122C18.3658 0.998158 14.9185 0.62544 11.6308 1.38328C8.34302 2.14113 5.40677 3.98527 3.29641 6.61778C2.46324 7.6571 1.77801 8.79533 1.25227 10Z" fill="#068EF1"/>
<path d="M27.1842 24.602C28.3922 22.9197 27.4063 20.7042 25.4775 19.95L24.728 19.6569C23.2131 19.0645 21.5351 19.8765 20.4081 21.0494C19.7256 21.7596 18.91 22.3285 18.0078 22.7234C17.1056 23.1184 16.1343 23.3318 15.1496 23.3515C14.1649 23.3711 13.186 23.1966 12.2687 22.838C11.3514 22.4793 10.5138 21.9434 9.80356 21.261C9.09336 20.5786 8.52453 19.763 8.12954 18.8608C7.73455 17.9585 7.52114 16.9873 7.50149 16.0026C7.46904 14.3763 6.78695 12.6415 5.27204 12.0491L4.52253 11.756C2.59368 11.0018 0.366436 11.9609 0.112857 14.0164C0.025655 14.7233 -0.0112869 15.437 0.00298573 16.1522C0.0422852 18.1217 0.469109 20.0641 1.25909 21.8686C1.37114 22.1245 1.49019 22.377 1.61604 22.6257L0.101905 28.4776C-0.283752 29.9682 1.08874 31.3172 2.5724 30.906L8.35786 29.3022C8.74275 29.4923 9.13626 29.6661 9.53737 29.8229C11.3719 30.5403 13.3298 30.8893 15.2993 30.85C17.2687 30.8107 19.2111 30.3839 21.0156 29.5939C22.8201 28.8039 24.4513 27.6663 25.8161 26.2459C26.3118 25.73 26.7688 25.1805 27.1842 24.602Z" fill="#3BCDAA"/>
</g>
<defs>
<clipPath id="clip0_3_74">
<rect width="28" height="30" fill="white" transform="translate(0 1)"/>
</clipPath>
</defs>
</svg>
